<svg width="36" height="36" viewBox="0 0 36 36" fill="none" xmlns="http://www.w3.org/2000/svg">
<path d="M14.6667 13.8337H21.3334M14.6667 17.167H18.8334M18.8334 25.917V24.5003C18.8334 23.1002 18.8334 22.4001 19.1059 21.8653C19.3455 21.3949 19.728 21.0125 20.1984 20.7728C20.7332 20.5003 21.4332 20.5003 22.8334 20.5003H24.25M24.6667 19.6768V13.667C24.6667 12.2669 24.6667 11.5668 24.3942 11.032C24.1545 10.5616 23.7721 10.1792 23.3017 9.93948C22.7669 9.66699 22.0668 9.66699 20.6667 9.66699H15.3334C13.9332 9.66699 13.2332 9.66699 12.6984 9.93948C12.228 10.1792 11.8455 10.5616 11.6059 11.032C11.3334 11.5668 11.3334 12.2669 11.3334 13.667V22.3337C11.3334 23.7338 11.3334 24.4339 11.6059 24.9686C11.8455 25.439 12.228 25.8215 12.6984 26.0612C13.2332 26.3337 13.9332 26.3337 15.3334 26.3337H18.0099C18.6213 26.3337 18.9271 26.3337 19.2148 26.2646C19.4699 26.2033 19.7137 26.1023 19.9374 25.9653C20.1897 25.8107 20.4059 25.5945 20.8383 25.1621L23.4951 22.5052C23.9275 22.0729 24.1437 21.8567 24.2983 21.6044C24.4354 21.3807 24.5364 21.1368 24.5976 20.8817C24.6667 20.594 24.6667 20.2883 24.6667 19.6768Z" stroke="white" stroke-width="2" stroke-linecap="round"/>
</svg>
