<svg width="40" height="40" viewBox="0 0 40 40" fill="none" xmlns="http://www.w3.org/2000/svg">
<path fill-rule="evenodd" clip-rule="evenodd" d="M24.4374 10C25.0921 10 25.7197 10.2614 26.1781 10.7234L29.279 13.8243C29.7407 14.286 30.0001 14.9122 30.0001 15.5651C30.0001 16.218 29.7407 16.8442 29.279 17.3058L17.9575 28.6238C17.259 29.4295 16.2689 29.9245 15.1346 30.0023H10V29.0023L10.0032 24.7873C10.0884 23.7328 10.5787 22.7523 11.3265 22.0934L22.6954 10.7246C23.1564 10.2608 23.7834 10 24.4374 10ZM15.064 28.0048C15.5982 27.967 16.0955 27.7184 16.4948 27.2616L24.0568 19.6996L20.3024 15.9451L12.6961 23.5496C12.291 23.9079 12.0403 24.4092 12 24.8678V28.0029L15.064 28.0048ZM21.7168 14.5311L25.471 18.2854L27.8648 15.8916C27.9514 15.805 28.0001 15.6876 28.0001 15.5651C28.0001 15.4426 27.9514 15.3251 27.8648 15.2385L24.7611 12.1349C24.6755 12.0485 24.5589 12 24.4374 12C24.3158 12 24.1992 12.0485 24.1136 12.1349L21.7168 14.5311Z" fill="white"/>
</svg>
